<svg id="Capa_1" enable-background="new 0 0 512 512" height="512" viewBox="0 0 512 512" width="512" xmlns="http://www.w3.org/2000/svg"><g><path d="m397 30v136c0 61.304-49.696 111-111 111v-217h10c16.569 0 30-13.431 30-30 0-16.569-13.431-30-30-30h-80c-16.569 0-30 13.431-30 30 0 16.569 13.431 30 30 30h10v217c-61.304 0-111-49.696-111-111v-136c0-16.569-13.431-30-30-30h-40c-16.569 0-30 13.431-30 30 0 16.569 13.431 30 30 30h10v106c0 94.441 76.559 171 171 171v115h-10c-16.569 0-30 13.431-30 30 0 16.569 13.431 30 30 30h80c16.569 0 30-13.431 30-30 0-16.569-13.431-30-30-30h-10v-115c94.441 0 171-76.559 171-171v-106h10c16.569 0 30-13.431 30-30 0-16.569-13.431-30-30-30h-40c-16.569 0-30 13.431-30 30z"/></g></svg>